<?xml version="1.0" encoding="utf-8"?>
<!-- Generator: Adobe Illustrator 28.0.0, SVG Export Plug-In . SVG Version: 6.00 Build 0)  -->
<svg version="1.1" id="Слой_1" xmlns="http://www.w3.org/2000/svg" xmlns:xlink="http://www.w3.org/1999/xlink" x="0px" y="0px"
	 viewBox="0 0 1000 229.3246155" enable-background="new 0 0 1000 229.3246155" xml:space="preserve">
<path fill="#041E41" d="M0,229.3246155h229.2649841V0H0V229.3246155z M146.9488525,17.5136795
	c40.5227356,13.2843399,69.8070068,51.710762,69.917099,97.1050568c0.1100922,44.6557541-28.582428,82.9904404-69.917099,97.1554947
	V17.5136795z M114.5957947,12.3164558c7.3210678,0,15.1191864,0.9770594,21.6145782,2.2706308
	c0,51.9538918-50.2382965,94.7105637-102.0866699,94.7105637l-21.6787987-0.0321121
	C15.9999313,56.0089111,60.0593567,12.3164539,114.5957947,12.3164558z M34.1420441,120.1141129
	c51.8392029,0,102.0591583,42.7108078,102.0591583,94.6142197c-6.4862061,1.3256989-14.6742401,2.3119202-21.6054001,2.3119202
	c-54.5547867-0.0733795-100.1050339-43.8988647-102.1646576-96.9261398
	C12.4311476,120.1141129,34.1420555,120.1141129,34.1420441,120.1141129z M306.0123291,134.8112946v-14.4540634h47.7062073
	v-18.4265213h-47.7153931V75.1005554h50.7566528v-18.385231H286.475708v77.2611008
	c0,19.5320282,8.3164978,32.8897552,27.839325,35.6328583c0.3898926,0.0963287,0.7752075,0.1697235,1.1330261,0.1789093h0.3532104
	c1.9999695,0.2247772,4.0412598,0.3715668,6.1834717,0.3715668h36.1282654v-18.3622894h-35.9677429
	C315.9388733,151.7974701,306.0123291,148.7332611,306.0123291,134.8112946z M371.9890747,170.1872711h19.5366211V56.6878052
	h-19.5366211V170.1872711z M448.8786316,85.522522c-24.6925354,0-43.1741028,17.0136795-43.1741028,43.5043945v0.6559448
	c0,25.8439331,17.825592,42.5273438,43.664917,42.5273438c12.4265442,0,24.0365601-3.4311829,34.664978-14.7247009
	l-11.775177-11.4449005c-6.2156067,6.2155762-12.2660217,9.4862061-22.2384338,9.4862061
	c-14.5549622,0-24.2017212-8.5045471-24.8576965-21.5916443h64.1006165
	c0.3256836-3.2706299,0.3256836-6.8669434,0.3256836-6.8669434
	C489.5986023,104.0041122,473.4060059,85.5225372,448.8786316,85.522522z M425.6585693,120.1966705
	c0.8165283-9.9816055,10.9586792-17.9953308,23.2200623-17.9953308c11.4449158,0,20.7659607,8.1788559,20.7659607,17.9953308
	H425.6585693z M544.4928589,103.0224457c8.8302612,0,15.3760986,3.2752151,20.9311523,8.995369l12.1008301-12.5962753
	c-9.4862061-10.1421509-20.7659302-14.2292862-33.0319214-14.2292862c-24.857666,0-44.8071289,18.4815598-44.8071289,43.6695175
	s19.9494629,43.674118,44.8071289,43.674118c12.2659912,0,23.550354-4.0871429,33.0319824-14.2293091l-12.1008911-12.5962677
	c-5.5549927,5.7247467-12.1008301,8.9953766-20.9310913,8.9953766c-14.3944092,0-25.3485107-10.9632568-25.3485107-25.8439178
	S530.0985107,103.0224533,544.4928589,103.0224457z M609.2219238,134.843399h-0.0229492v-28.9769287h17.7659912V88.1142654
	h-17.743042v-31.421875h-19.5366211v79.3023758l0.0550537-0.0045776c0.5595703,18.4402771,8.93573,30.9998474,27.7843018,33.6466217
	c0.3898926,0.0963287,0.7752075,0.1697235,1.1329956,0.1743011h0.3531494
	c2.000061,0.2247772,4.0412598,0.3761597,6.1835327,0.3761597h2.0687866l0.0687866-18.3622894h-1.9770508
	C619.1484985,151.8249817,609.2219238,148.7653503,609.2219238,134.843399z M662.781311,100.3206253V88.1188507h-19.3760986
	v82.0684204h19.3760986v-43.1557693c0-13.5136948,8.6283569-21.9861298,22.1375122-21.9861298
	c3.0917358,0,5.8623657,0.3210907,8.1421509,0.8165054V86.9766388c-1.9386597-0.3007812-3.8961182-0.4647903-5.8577271-0.4908218
	C675.4785156,86.4904022,666.6895752,91.8665237,662.781311,100.3206253z M740.8313599,85.6739044
	c-24.9127197,0-44.779541,18.8806458-44.779541,43.4768677c0,24.5824585,19.8668213,43.4768524,44.779541,43.4768524
	c24.7384644,0,44.7704468-18.8943939,44.7704468-43.4768524C785.597168,104.5591354,765.5697632,85.6739044,740.8313599,85.6739044z
	 M740.8313599,154.8800049c-14.4907227,0-25.3943481-11.2430725-25.3943481-25.7292328
	c0-14.4953537,10.9036255-25.729248,25.3943481-25.729248c14.3302002,0,25.3944092,11.2338867,25.3944092,25.729248
	C766.2211304,143.6415253,755.1615601,154.8800049,740.8313599,154.8800049z M797.6109619,170.1872711h19.5457764V56.6878052
	h-19.5457764V170.1872711z M887.6196899,135.8250427c0,13.0228729-7.6513672,18.5687103-17.9127808,18.5687103
	c-10.2568359,0-17.9035645-5.5458374-17.9035645-18.3944092V88.1188507h-19.7017212v49.5043488
	c0,23.4494324,17.0916138,34.6833344,37.4447632,34.6833344c20.5136719,0,37.7658691-11.3990326,37.7658691-35.1741486V88.1188507
	h-19.6925659C887.6196899,88.1188507,887.6196899,135.8250427,887.6196899,135.8250427z M981.2339478,143.9442596
	l-12.3210449-17.2338562l15.2568359-20.7888947l13.0641479-17.8026657h-21.3255615l-17.7521973,24.5870438l-17.9082031-24.5870438
	h-21.1605225l12.1329956,16.6008377l16.192627,22.151268l-16.9724121,23.6375046l-14.1237793,19.6788177h20.999939
	l20.8347778-28.9861145l20.8439941,28.9861145H1000l-18.7659912-26.2430115H981.2339478z"/>
</svg>
