<?xml version="1.0" encoding="utf-8"?>
<!-- Generator: Adobe Illustrator 28.0.0, SVG Export Plug-In . SVG Version: 6.00 Build 0)  -->
<svg version="1.1" id="Слой_1" xmlns="http://www.w3.org/2000/svg" xmlns:xlink="http://www.w3.org/1999/xlink" x="0px" y="0px"
	 viewBox="0 0 1000 383" enable-background="new 0 0 1000 383" xml:space="preserve">
<g id="Background">
	<rect fill-opacity="0" width="1000" height="383"/>
</g>
<g id="Layer_1">
	<path fill="#8C0014" d="M0,383h1000V0H0V383z"/>
	<path fill="#FFFFFF" d="M796.1699829,211.2700043v9.7799988c0,8.2200012,7.4200439,15.769989,19.0700073,15.769989
		c16.710022,0,23.4199829-12.6299896,24.789978-17.9199982c18.0599976,0,32.2700806-0.0099945,37.3800049-0.0099945
		c-5.5700073,17.3200073-28.539978,37.8899994-70.7799683,37.8899994c-55.0500488,0-72.3099976-29.8200073-72.3099976-52.6100006
		c0-24.3099976,19.9400024-53.2399902,72.2199707-53.2399902c45.2000732,0,72.2200317,26.1999817,72.2200317,53.2499847
		c0,4.5200195-0.3800049,7.0900116-0.3800049,7.0900116H796.1699829z M796.1699829,194.8300018h20.9400024v-13.4100037
		c0-4.0500031-3.2299805-10.4599915-10.5400391-10.4599915c-6.7799683,0-10.3999634,6.1399841-10.3999634,10.3999939V194.8300018z
		 M642.7800293,231.1100006h-14.8800049v20.9799957h100.5499878v-20.9799957h-15.0800171V124.4300003h-85.4699707v20.9899979
		h14.8800049V231.1100006z M539.1900024,211.2700043v9.7799988c0,8.2200012,7.4400024,15.769989,19.0899658,15.769989
		c16.7000122,0,23.4199829-12.6299896,24.7800293-17.9199982c18.0700073,0,32.2800293-0.0099945,37.3899536-0.0099945
		c-5.5699463,17.3200073-28.5499878,37.8899994-70.7799683,37.8899994c-55.0599976,0-72.3099976-29.8200073-72.3099976-52.6100006
		c0-24.3099976,19.9200134-53.2399902,72.2299805-53.2399902c45.1800537,0,72.2200317,26.1999817,72.2200317,53.2499847
		c0,4.5200195-0.3900146,7.0900116-0.3900146,7.0900116H539.1900024z M539.1900024,194.8300018h20.9500122v-13.4100037
		c0-4.0500031-3.2299805-10.4599915-10.5400391-10.4599915c-6.7699585,0-10.4099731,6.1399841-10.4099731,10.3999939V194.8300018z
		 M444.3500061,137.6000061l-9.7299805-18.5200043l-30.7200317,15.8399963l9.730011,18.7000122L444.3500061,137.6000061z
		 M456.5599976,156.1100006h-82.6000061v20.9899902h15.0600281v54.0100098h-15.0600281v20.9799957h97.6699829v-20.9799957
		h-15.0699768V156.1100006z M285.2399902,124.4300003h75.1700134v21.0000076h-15.0700073v85.6799927h15.0700073v20.9799957
		h-97.7000122v-20.9799957h15.0799866v-55.5299988l-55.5099792,76.5099945l-55.7200012-76.5099945v55.5299988h15.0800018v20.9799957
		h-54.0100021v-20.9799957h14.890007v-85.6799927h-14.890007v-21.0000076h85.2900009l36.25,49.8099899L285.2399902,124.4300003z"/>
</g>
</svg>
