<?xml version="1.0" encoding="utf-8"?>
<!-- Generator: Adobe Illustrator 28.0.0, SVG Export Plug-In . SVG Version: 6.00 Build 0)  -->
<svg version="1.1" id="Слой_1" xmlns="http://www.w3.org/2000/svg" xmlns:xlink="http://www.w3.org/1999/xlink" x="0px" y="0px"
	 viewBox="0 0 1000 194.9822083" enable-background="new 0 0 1000 194.9822083" xml:space="preserve">
<path fill="#000001" d="M363.2119751,103.1313782c0,32.9246826,32.9241943,50.3469849,65.0393982,50.3469849
	c25.8754883,0,63.1679993-11.8260193,63.1679993-48.4065628c0-25.8169708-17.2668457-35.3130875-41.9623718-41.3188515
	c-21.644104-5.2647858-47.822052-4.4458199-47.822052-18.3781624c0-11.2900467,12.2359924-15.4238853,24.3840027-15.4238853
	c13.6494751,0,27.4839172,5.7815208,27.4839172,20.6885719h33.9871521
	c-2.944397-34.1527824-30.6037903-47.1587753-60.8470764-47.1587753c-30.2433167,0-59.6191101,12.9669971-59.6191101,47.4807663
	c0,24.4715195,21.1471252,34.9911041,43.2982788,38.8324432c33.3531494,5.7817688,43.6977539,7.117218,43.6977539,19.7917099
	c0,13.4449615-19.021759,16.9058228-25.4955139,16.9058228c-14.9949036,0-30.623291-6.6882324-30.8867493-23.3600616H363.2119751z"
	/>
<path fill-rule="evenodd" clip-rule="evenodd" fill="#000001" d="M1000,3.7341008h-36.7084961v15.3068886
	c0,0-9.114624-19.0409889-43.4733276-19.0409889c-37.0484619,0-60.437561,32.5539513-60.437561,68.3152695
	c0,37.8969803,20.1992188,67.8967819,61.647522,67.8967819c31.1387939,0,40.9284058-16.408844,40.9284058-16.408844
	l0.3199463,14.6924133c-1.2199097,19.557724-11.444519,30.0193024-31.0337524,30.0193024
	c-14.4594116,0-23.5640259-4.6703186-25.5639038-16.0188599l-40.4784546,2.2229156
	c1.460022,27.8058929,33.2086792,44.2632294,62.0675659,44.2632294c65.017395,0,72.7320557-34.2501221,72.7320557-62.0950165
	V3.7341008z M927.8729248,106.0172577c-19.7342529,0-32.4187012-19.1287308-31.3087158-38.2379684
	c1.0348511-17.7930374,10.4595337-36.2782974,32.7786865-36.2782974c22.3190308,0,34.3985596,18.2415218,32.9335938,39.485672
	c-1.1798706,17.1983032-11.0095215,35.0305939-34.4135742,35.0305939H927.8729248z"/>
<path fill="#000001" d="M497.3761292,146.5071411h38.1974792V66.8238297c0-23.9646454,16.5742798-29.5316696,23.8890381-29.5316696
	c20.8041382,0,22.434082,16.905674,22.434082,32.2225571v77.0024185h38.1984863V66.8823242
	c0-24.02314,13.7744141-30.0289001,23.6240234-30.0289001c21.9641113,0,22.6940918,17.1299171,22.6940918,32.7002945v76.9634171
	h38.1984863V54.4418221c0-36.0346603-20.5391235-49.7523727-49.2330322-49.7523727
	c-18.7892456,0-32.8686523,11.026824-40.6933594,23.126091c-7.3046875-16.671833-22.434082-23.126091-39.3884277-23.126091
	s-31.5637207,8.3359318-41.2133789,22.5898609h-0.5149536V8.4625616h-36.1825562v138.0445862H497.3761292z"/>
<path fill-rule="evenodd" clip-rule="evenodd" fill="#000001" d="M851.5209961,85.8840637
	c2.8948364-41.3673935-20.689209-84.7531281-70.9572144-84.7531281c-44.0482178,0-70.1772461,35.7030907-70.1772461,74.6330338
	c0,38.9304504,26.9490356,73.5120621,71.6672363,73.5120621c32.0986938,0,56.7126465-13.0449829,67.682251-45.8521652
	l-39.3684082-1.74543c-1.0050049,5.1187973-11.3495483,17.1593094-27.5789185,17.1593094
	c-21.6741333,0-33.3636475-16.7108231-33.3636475-32.9536819H851.5209961z M750.4299927,58.8581505
	c0-5.1183014,6.6647339-27.8056412,30.4737549-27.8056412c23.809082,0,30.4788208,21.3513985,30.4788208,27.8056412h-60.9475708
	H750.4299927z"/>
<path fill="#000001" d="M177.7743988,146.5466309c0-25.0759888,20.328186-45.4136734,45.413681-45.4136734
	c25.0859985,0,45.4136963,20.3376846,45.4136963,45.4136734c0,25.0760193-20.3276978,45.4136963-45.4136963,45.4136963
	C198.1025848,191.9603271,177.7743988,171.6321411,177.7743988,146.5466309z"/>
<path fill="#000001" d="M88.88694,146.5466309c0-25.0759888,20.3281937-45.4136734,45.4136887-45.4136734
	c25.0859985,0,45.4136963,20.3376846,45.4136963,45.4136734c0,25.0760193-20.3376923,45.4136963-45.4136963,45.4136963
	S88.88694,171.6321411,88.88694,146.5466309z"/>
<path fill="#000001" d="M0,146.5466309c0-25.0759888,20.3279381-45.4136734,45.4136848-45.4136734
	c25.0854988,0,45.4136848,20.3376846,45.4136848,45.4136734c0,25.0760193-20.328186,45.4136963-45.4136848,45.4136963
	C20.3279381,191.9603271,0,171.6321411,0,146.5466309z"/>
<path fill="#000001" d="M177.7743988,57.6691933c0-25.0858955,20.328186-45.4138336,45.413681-45.4138336
	c25.0859985,0,45.4136963,20.3279381,45.4136963,45.4138336c0,25.0854988-20.3376923,45.4136848-45.4136963,45.4136848
	S177.7743988,82.7546921,177.7743988,57.6691933z"/>
<path fill="#000001" d="M88.88694,57.6691933c0-25.0858955,20.3281937-45.4138336,45.4136887-45.4138336
	c25.0859985,0,45.4136963,20.3279381,45.4136963,45.4138336c0,25.0854988-20.3376923,45.4136848-45.4136963,45.4136848
	S88.88694,82.7546921,88.88694,57.6691933z"/>
<path fill="#000001" d="M266.544342,57.6691933c0-25.0858955,20.328186-45.4138336,45.4136963-45.4138336
	c25.085968,0,45.4136963,20.3279381,45.4136963,45.4138336c0,25.0854988-20.3277283,45.4136848-45.4136963,45.4136848
	C286.8725281,103.0828781,266.544342,82.7546921,266.544342,57.6691933z"/>
</svg>
