<?xml version="1.0" encoding="utf-8"?>
<!-- Generator: Adobe Illustrator 28.0.0, SVG Export Plug-In . SVG Version: 6.00 Build 0)  -->
<svg version="1.1" id="Слой_1" xmlns="http://www.w3.org/2000/svg" xmlns:xlink="http://www.w3.org/1999/xlink" x="0px" y="0px"
	 viewBox="0 0 1000 357.347168" enable-background="new 0 0 1000 357.347168" xml:space="preserve">
<g>
	<path fill-rule="evenodd" clip-rule="evenodd" fill="#FFFFFF" d="M333.3288269,357.347168h333.3288269v-25.9251709H333.3288269
		V357.347168z"/>
	<path fill-rule="evenodd" clip-rule="evenodd" fill="#009537" d="M0.0067619,357.347168h333.322052v-25.9251709H0.0067619
		V357.347168z"/>
	<path fill-rule="evenodd" clip-rule="evenodd" fill="#D51317" d="M666.6576538,357.347168h333.3288574v-25.9251709H666.6576538
		V357.347168z"/>
	<path fill-rule="evenodd" clip-rule="evenodd" d="M140.2692566,47.4348679V5.8490605H0v41.2680016h77.6809387L0,220.2222137
		v43.7360992h142.7373657v-44.0471649H63.8189964L140.2692566,47.4348679z M392.1034546,105.0261383L361.2758789,5.842299
		h-55.474823V263.958313h58.5582275v-97.3310852l28.974823,97.3310852h56.1103821V5.842299h-57.3410645
		C392.1034241,5.842299,392.1034241,105.0261459,392.1034546,105.0261383z M555.4916992,213.7442932
		c0,6.9512482-6.3156128,11.7116394-14.0241699,11.7116394c-7.0864868,0-14.3352661-3.0834503-14.3352661-12.0091858V5.842299
		h-58.5718079V212.216095c0,26.4932098,27.4466248,58.206604,72.4336853,58.206604
		c41.937439,0,72.4607544-22.4833832,72.4607544-58.206604V5.842299h-57.9631958V213.7442932z M730.578125,118.2795029
		c-37.9614258-22.6321411-47.7053833-32.0312042-48.0975342-52.9864044
		c-0.2907715-17.242897,3.7055054-27.0950127,15.1196289-26.7974892
		c10.5959473,0.2907639,13.5576172,6.775444,14.1865234,13.5508842v34.5060806h58.5581665V60.6747055
		c0-32.3422623-20.9551392-60.377182-71.8318481-60.377182c-62.6154175,0-74.2797241,47.1373444-73.6643677,74.2458725
		c0.8114624,35.412178,8.0196533,44.966774,16.6411133,54.2035522c8.6349487,9.2435455,30.9154663,24.4781494,46.5490723,31.7134094
		c21.2729492,9.8656311,26.8245239,23.0987244,26.8245239,36.6563568c0,14.7815704-2.7858887,28.6570282-16.0257568,28.6570282
		c-7.4042969,0-14.8018799-3.0834503-14.8018799-12.3269806v-32.6465607h-57.9563599v23.40979
		c0,36.9606476,28.3662109,64.9820557,72.4336548,64.9820557c44.3987427,0,76.1662598-22.1790924,77.0723877-74.2256165
		C776.5185547,141.9868011,746.6106567,127.8205719,730.578125,118.2795029z M942.050415,263.958313H1000V5.842299h-57.949707
		V263.958313H942.050415z M887.1773682,117.9617157c-37.9749146-22.6118622-47.7188721-32.0312119-48.0907593-52.9796448
		c-0.2974854-17.2428932,3.6987305-27.1017723,15.0993652-26.7839622
		c10.5891724,0.2840004,13.5643921,6.775444,14.1797485,13.5441246v34.506073H926.9375V60.3704224
		C926.9375,28.0214005,905.9755249,0,855.1259155,0c-62.6356812,0-74.2932129,47.1170578-73.6711426,74.2255936
		c0.7844238,35.412178,8.0061035,44.966774,16.6343384,54.2103043c8.6417236,9.2435608,30.9155273,24.4781494,46.5422974,31.7134094
		c21.2730103,9.8588867,26.8178101,23.1122437,26.8178101,36.6631317c0,14.7883148-2.7723999,28.6434937-16.0257568,28.6434937
		c-7.4042969,0-14.7815552-3.0834503-14.7815552-12.3202209v-32.6533203h-57.949646v23.4029999
		c0,36.9674225,28.3527222,65.0091095,72.4269409,65.0091095c44.3852539,0,76.1459351-22.192627,77.0655518-74.2458801
		C933.1043701,141.6892548,903.2098999,127.5162735,887.1773682,117.9617157z M167.7023773,5.8490605l-15.8905182,258.4067688
		l51.9383087-0.3042603l2.4613495-27.1017761h28.3662567l2.1638184,27.1017761h56.7257538L270.0372925,5.842299H167.6956024
		L167.7023773,5.8490605z M209.0109406,195.5817719l10.1631622-133.3585815l12.0294495,133.3585815H209.0109406z"/>
</g>
</svg>
